<mxfile host="app.diagrams.net" modified="2024-02-05T07:40:41.263Z" agent="Mozilla/5.0 (Windows NT 10.0; Win64; x64) AppleWebKit/537.36 (KHTML, like Gecko) Chrome/119.0.0.0 Safari/537.36" etag="226kIfxhZXL4CCSZroUQ" version="23.0.1" type="github">
  <diagram name="第 1 页" id="FKjoQzHYXY7jLpggCcWs">
    <mxGraphModel dx="1050" dy="557" grid="1" gridSize="10" guides="1" tooltips="1" connect="1" arrows="1" fold="1" page="1" pageScale="1" pageWidth="827" pageHeight="1169" math="0" shadow="0">
      <root>
        <mxCell id="0" />
        <mxCell id="1" parent="0" />
        <mxCell id="rMmLwiUWEdHzJ8mK_K3w-1" style="edgeStyle=orthogonalEdgeStyle;rounded=0;orthogonalLoop=1;jettySize=auto;html=1;exitX=1;exitY=0.5;exitDx=0;exitDy=0;entryX=0.5;entryY=1;entryDx=0;entryDy=0;" edge="1" parent="1" source="rMmLwiUWEdHzJ8mK_K3w-3" target="rMmLwiUWEdHzJ8mK_K3w-7">
          <mxGeometry relative="1" as="geometry" />
        </mxCell>
        <mxCell id="rMmLwiUWEdHzJ8mK_K3w-2" value="升清" style="edgeLabel;html=1;align=center;verticalAlign=middle;resizable=0;points=[];" vertex="1" connectable="0" parent="rMmLwiUWEdHzJ8mK_K3w-1">
          <mxGeometry x="0.219" y="1" relative="1" as="geometry">
            <mxPoint as="offset" />
          </mxGeometry>
        </mxCell>
        <mxCell id="rMmLwiUWEdHzJ8mK_K3w-3" value="脾" style="ellipse;whiteSpace=wrap;html=1;fontSize=14;" vertex="1" parent="1">
          <mxGeometry x="140" y="275" width="80" height="50" as="geometry" />
        </mxCell>
        <mxCell id="rMmLwiUWEdHzJ8mK_K3w-4" value="" style="rounded=0;whiteSpace=wrap;html=1;" vertex="1" parent="1">
          <mxGeometry x="150" y="115" width="140" height="100" as="geometry" />
        </mxCell>
        <mxCell id="rMmLwiUWEdHzJ8mK_K3w-5" value="肺" style="text;html=1;strokeColor=none;fillColor=none;align=center;verticalAlign=middle;whiteSpace=wrap;rounded=0;" vertex="1" parent="1">
          <mxGeometry x="137" y="115" width="60" height="30" as="geometry" />
        </mxCell>
        <mxCell id="rMmLwiUWEdHzJ8mK_K3w-6" value="清气" style="ellipse;whiteSpace=wrap;html=1;fontSize=14;" vertex="1" parent="1">
          <mxGeometry x="200" y="115" width="80" height="50" as="geometry" />
        </mxCell>
        <mxCell id="rMmLwiUWEdHzJ8mK_K3w-7" value="水谷之气" style="ellipse;whiteSpace=wrap;html=1;fontSize=14;" vertex="1" parent="1">
          <mxGeometry x="200" y="165" width="80" height="50" as="geometry" />
        </mxCell>
        <mxCell id="rMmLwiUWEdHzJ8mK_K3w-8" value="" style="rounded=0;whiteSpace=wrap;html=1;" vertex="1" parent="1">
          <mxGeometry x="357" y="115" width="100" height="100" as="geometry" />
        </mxCell>
        <mxCell id="rMmLwiUWEdHzJ8mK_K3w-9" value="宗气" style="ellipse;whiteSpace=wrap;html=1;fontSize=14;fillColor=#f8cecc;strokeColor=#b85450;" vertex="1" parent="1">
          <mxGeometry x="371" y="145" width="80" height="50" as="geometry" />
        </mxCell>
        <mxCell id="rMmLwiUWEdHzJ8mK_K3w-10" value="膻中（气海）" style="text;html=1;strokeColor=none;fillColor=none;align=center;verticalAlign=middle;whiteSpace=wrap;rounded=0;" vertex="1" parent="1">
          <mxGeometry x="357" y="115" width="84" height="30" as="geometry" />
        </mxCell>
        <mxCell id="rMmLwiUWEdHzJ8mK_K3w-11" value="" style="endArrow=classic;html=1;rounded=0;exitX=1;exitY=0.5;exitDx=0;exitDy=0;entryX=0;entryY=0.5;entryDx=0;entryDy=0;" edge="1" parent="1" source="rMmLwiUWEdHzJ8mK_K3w-6" target="rMmLwiUWEdHzJ8mK_K3w-9">
          <mxGeometry width="50" height="50" relative="1" as="geometry">
            <mxPoint x="390" y="335" as="sourcePoint" />
            <mxPoint x="440" y="285" as="targetPoint" />
          </mxGeometry>
        </mxCell>
        <mxCell id="rMmLwiUWEdHzJ8mK_K3w-12" value="" style="endArrow=classic;html=1;rounded=0;exitX=1;exitY=0.5;exitDx=0;exitDy=0;entryX=0;entryY=0.5;entryDx=0;entryDy=0;" edge="1" parent="1" source="rMmLwiUWEdHzJ8mK_K3w-7" target="rMmLwiUWEdHzJ8mK_K3w-9">
          <mxGeometry width="50" height="50" relative="1" as="geometry">
            <mxPoint x="350" y="255" as="sourcePoint" />
            <mxPoint x="400" y="205" as="targetPoint" />
          </mxGeometry>
        </mxCell>
        <mxCell id="rMmLwiUWEdHzJ8mK_K3w-13" value="" style="group;fontSize=14;" vertex="1" connectable="0" parent="1">
          <mxGeometry x="530" y="85" width="120" height="40" as="geometry" />
        </mxCell>
        <mxCell id="rMmLwiUWEdHzJ8mK_K3w-14" value="&lt;font style=&quot;font-size: 14px;&quot;&gt;喉咙&lt;/font&gt;" style="ellipse;whiteSpace=wrap;html=1;fontSize=13;" vertex="1" parent="rMmLwiUWEdHzJ8mK_K3w-13">
          <mxGeometry width="76" height="40" as="geometry" />
        </mxCell>
        <mxCell id="rMmLwiUWEdHzJ8mK_K3w-15" value="" style="endArrow=classic;html=1;rounded=0;exitX=1;exitY=0.5;exitDx=0;exitDy=0;" edge="1" parent="rMmLwiUWEdHzJ8mK_K3w-13" source="rMmLwiUWEdHzJ8mK_K3w-14" target="rMmLwiUWEdHzJ8mK_K3w-16">
          <mxGeometry width="50" height="50" relative="1" as="geometry">
            <mxPoint x="127" y="21" as="sourcePoint" />
            <mxPoint x="272" y="20" as="targetPoint" />
          </mxGeometry>
        </mxCell>
        <mxCell id="rMmLwiUWEdHzJ8mK_K3w-16" value="促进呼吸" style="text;html=1;strokeColor=#d79b00;fillColor=#ffe6cc;align=center;verticalAlign=middle;whiteSpace=wrap;rounded=0;" vertex="1" parent="rMmLwiUWEdHzJ8mK_K3w-13">
          <mxGeometry x="60" y="5" width="60" height="30" as="geometry" />
        </mxCell>
        <mxCell id="rMmLwiUWEdHzJ8mK_K3w-17" value="" style="endArrow=classic;html=1;rounded=0;exitX=1;exitY=0.5;exitDx=0;exitDy=0;entryX=0;entryY=0.5;entryDx=0;entryDy=0;" edge="1" parent="1" source="rMmLwiUWEdHzJ8mK_K3w-9" target="rMmLwiUWEdHzJ8mK_K3w-14">
          <mxGeometry width="50" height="50" relative="1" as="geometry">
            <mxPoint x="470" y="355" as="sourcePoint" />
            <mxPoint x="520" y="305" as="targetPoint" />
          </mxGeometry>
        </mxCell>
        <mxCell id="rMmLwiUWEdHzJ8mK_K3w-18" value="心脉" style="ellipse;whiteSpace=wrap;html=1;fontSize=13;" vertex="1" parent="1">
          <mxGeometry x="530" y="170" width="76" height="40" as="geometry" />
        </mxCell>
        <mxCell id="rMmLwiUWEdHzJ8mK_K3w-19" value="" style="endArrow=classic;html=1;rounded=0;exitX=1;exitY=0.5;exitDx=0;exitDy=0;" edge="1" parent="1" source="rMmLwiUWEdHzJ8mK_K3w-18" target="rMmLwiUWEdHzJ8mK_K3w-20">
          <mxGeometry width="50" height="50" relative="1" as="geometry">
            <mxPoint x="657" y="191" as="sourcePoint" />
            <mxPoint x="802" y="190" as="targetPoint" />
          </mxGeometry>
        </mxCell>
        <mxCell id="rMmLwiUWEdHzJ8mK_K3w-20" value="行气血而布全身" style="text;html=1;strokeColor=#d79b00;fillColor=#ffe6cc;align=center;verticalAlign=middle;whiteSpace=wrap;rounded=0;" vertex="1" parent="1">
          <mxGeometry x="590" y="175" width="90" height="30" as="geometry" />
        </mxCell>
        <mxCell id="rMmLwiUWEdHzJ8mK_K3w-21" value="" style="endArrow=classic;html=1;rounded=0;exitX=1;exitY=0.5;exitDx=0;exitDy=0;entryX=0;entryY=0.5;entryDx=0;entryDy=0;" edge="1" parent="1" source="rMmLwiUWEdHzJ8mK_K3w-9" target="rMmLwiUWEdHzJ8mK_K3w-18">
          <mxGeometry width="50" height="50" relative="1" as="geometry">
            <mxPoint x="420" y="385" as="sourcePoint" />
            <mxPoint x="470" y="335" as="targetPoint" />
          </mxGeometry>
        </mxCell>
      </root>
    </mxGraphModel>
  </diagram>
</mxfile>
